<svg xmlns="http://www.w3.org/2000/svg" viewBox="0 0 750 744.91"><defs><style>.cls-1{fill:#f7f0f6;}.cls-2{fill:#b7f4f5;}.cls-3{fill:#293541;}.cls-4{fill:#fcea7a;}.cls-5{fill:#f6c3e4;}</style></defs><g id="Layer_2" data-name="Layer 2"><g id="logo"><g id="figure"><path class="cls-1" d="M661.37,508.15l-16.8,115.54A20.89,20.89,0,0,1,628.87,641a356.81,356.81,0,0,1-83.82,10.09q-67.27,0-111.15-24.86t-60.45-66.79q-36.09,45.84-84.83,68.74t-99.46,22.91q-85.82,0-137.48-46.8T0,469.77A341.79,341.79,0,0,1,6.83,402.5L68.57,117.76A21,21,0,0,1,89.09,101.2H266.4a21,21,0,0,1,20.51,25.52L232.06,376.17q-3.9,23.4-3.9,33.15,0,56.57,53.63,56.55,76.05,0,96.53-101.4l54.85-246.82a21,21,0,0,1,20.5-16.45H631.18a21,21,0,0,1,20.53,25.43L586,431.75a72.72,72.72,0,0,0-1,13.65q0,39,42.9,39c3.74,0,7.33-.16,10.79-.49C652.27,482.64,663.33,494.68,661.37,508.15Z"/><path class="cls-2" d="M641.92,213.67a2.49,2.49,0,0,1-2.44-2l-4.19-22.28a93,93,0,0,0-74.66-74.66l-22.28-4.19a2.48,2.48,0,0,1,0-4.88l22.28-4.19a93,93,0,0,0,74.66-74.66l4.19-22.28a2.48,2.48,0,0,1,2.44-2h0a2.48,2.48,0,0,1,2.44,2l4.19,22.28a93,93,0,0,0,74.66,74.66l22.28,4.19a2.48,2.48,0,0,1,0,4.88l-22.28,4.19a93,93,0,0,0-74.66,74.66l-4.19,22.28A2.48,2.48,0,0,1,641.92,213.67Z"/><path class="cls-3" d="M641.92,5l4.19,22.28a96.05,96.05,0,0,0,76.64,76.64L745,108.08l-22.28,4.19a96,96,0,0,0-76.64,76.64l-4.19,22.28-4.19-22.28a96,96,0,0,0-76.64-76.64l-22.28-4.19,22.28-4.19a96,96,0,0,0,76.64-76.64L641.92,5m0-5A5,5,0,0,0,637,4.05l-4.19,22.28A90.52,90.52,0,0,1,560.17,99l-22.28,4.19a5,5,0,0,0,0,9.76l22.28,4.19a90.51,90.51,0,0,1,72.68,72.68L637,212.11a5,5,0,0,0,9.76,0L651,189.83a90.52,90.52,0,0,1,72.68-72.68L746,113a5,5,0,0,0,0-9.76L723.67,99A90.54,90.54,0,0,1,651,26.33L646.8,4.05a5,5,0,0,0-4.88-4Z"/><path class="cls-4" d="M208.44,514.76a2.48,2.48,0,0,1-2.44-2L200.41,483a124.81,124.81,0,0,0-100.2-100.21L70.5,377.24a2.49,2.49,0,0,1,0-4.89l29.71-5.58a124.81,124.81,0,0,0,100.2-100.21L206,236.85a2.48,2.48,0,0,1,4.88,0l5.59,29.71a124.8,124.8,0,0,0,100.2,100.21l29.71,5.58a2.49,2.49,0,0,1,0,4.89l-29.71,5.58A124.8,124.8,0,0,0,216.47,483l-5.59,29.71A2.49,2.49,0,0,1,208.44,514.76Z"/><path class="cls-3" d="M208.44,237.31,214,267A128,128,0,0,0,316.21,369.21l29.71,5.58-29.71,5.59A128,128,0,0,0,214,482.57l-5.59,29.71-5.59-29.71A128,128,0,0,0,100.67,380.38L71,374.79l29.71-5.58A128,128,0,0,0,202.85,267l5.59-29.71m0-5a5,5,0,0,0-4.88,4L198,266.1a122.34,122.34,0,0,1-98.22,98.23L70,369.91a5,5,0,0,0,0,9.77l29.71,5.58A122.34,122.34,0,0,1,198,483.48l5.59,29.72a5,5,0,0,0,9.76,0l5.59-29.72a122.34,122.34,0,0,1,98.22-98.22l29.71-5.58a5,5,0,0,0,0-9.77l-29.71-5.58a122.34,122.34,0,0,1-98.22-98.23l-5.59-29.71a5,5,0,0,0-4.88-4Z"/><path class="cls-5" d="M510.88,741.27a3.64,3.64,0,0,1-3.58-3l-4.09-21.78a89.69,89.69,0,0,0-72-72l-21.79-4.09a3.64,3.64,0,0,1,0-7.16l21.79-4.1a89.68,89.68,0,0,0,72-72l4.09-21.78a3.65,3.65,0,0,1,3.58-3h0a3.64,3.64,0,0,1,3.58,3l4.1,21.78a89.68,89.68,0,0,0,72,72l21.78,4.1a3.64,3.64,0,0,1,0,7.16l-21.78,4.09a89.69,89.69,0,0,0-72,72l-4.1,21.78A3.63,3.63,0,0,1,510.88,741.27Z"/><path class="cls-3" d="M510.88,536l4.1,21.78a93.87,93.87,0,0,0,74.92,74.92l21.78,4.1-21.78,4.09A93.89,93.89,0,0,0,515,715.85l-4.1,21.78-4.09-21.78a93.9,93.9,0,0,0-74.92-74.92l-21.78-4.09,21.78-4.1a93.89,93.89,0,0,0,74.92-74.92L510.88,536m0-7.28a7.27,7.27,0,0,0-7.15,5.93l-4.1,21.79a86.06,86.06,0,0,1-69.11,69.1l-21.78,4.1a7.28,7.28,0,0,0,0,14.31l21.78,4.1a86.06,86.06,0,0,1,69.11,69.11l4.1,21.78A7.28,7.28,0,0,0,518,739l4.1-21.78a86.06,86.06,0,0,1,69.1-69.11L613,644a7.28,7.28,0,0,0,0-14.31l-21.78-4.1a86.06,86.06,0,0,1-69.1-69.1L518,534.69a7.28,7.28,0,0,0-7.16-5.93Z"/></g></g></g></svg>